<svg width="28" height="28" viewBox="0 0 24 24" fill="none" xmlns="http://www.w3.org/2000/svg" aria-hidden="true">
  <path d="M3.5 15.5l1.4-4.6a2.4 2.4 0 0 1 2.3-1.7h9.6a2.4 2.4 0 0 1 2.3 1.7l1.4 4.6" stroke="#ff1e2d" stroke-width="1.6" stroke-linecap="round" stroke-linejoin="round" />
  <path d="M3.5 15.5h17v2.2a1 1 0 0 1-1 1h-1.2a1 1 0 0 1-1-1v-1.1H6.7v1.1a1 1 0 0 1-1 1H4.5a1 1 0 0 1-1-1v-2.2Z" stroke="#ff1e2d" stroke-width="1.6" stroke-linejoin="round" />
  <circle cx="7.5" cy="15.5" r="1.3" stroke="#ff1e2d" stroke-width="1.4" />
  <circle cx="16.5" cy="15.5" r="1.3" stroke="#ff1e2d" stroke-width="1.4" />
  <path d="M7 12h10" stroke="#ff1e2d" stroke-width="1.4" stroke-linecap="round" />
</svg>
